<svg version="1.1" id="Layer_1" xmlns="http://www.w3.org/2000/svg" xmlns:xlink="http://www.w3.org/1999/xlink" x="0px" y="0px"	 viewBox="0 0 512.4 512.4" style="enable-background:new 0 0 512.4 512.4;" xml:space="preserve"><g>	<g>		<path d="M326.936,445.264l-64.944-30.144c-4.32-2-9.328-1.984-13.632,0.08l-63.056,30.144c-5.568,2.656-9.104,8.272-9.104,14.432			V496.4c0,8.848,7.168,16,16,16h128c8.832,0,16-7.152,16-16v-36.624C336.2,453.536,332.584,447.888,326.936,445.264z M304.2,480.4			h-96v-10.528l47.168-22.544L304.2,470V480.4z"/>	</g></g><g>	<g>		<path d="M257.048,0C230.68,0,209.24,21.456,209.24,47.824c0,26.384,21.44,47.856,47.808,47.856			c26.4,0,47.872-21.472,47.872-47.856C304.92,21.456,283.448,0,257.048,0z M257.048,63.68c-8.72,0-15.808-7.104-15.808-15.856			c0-8.736,7.088-15.824,15.808-15.824c8.752,0,15.872,7.088,15.872,15.824C272.92,56.576,265.8,63.68,257.048,63.68z"/>	</g></g><g>	<g>		<path d="M176.184,304.4H16.616c-8.832,0-16,7.152-16,16c0,54.592,41.168,95.76,95.776,95.76c54.592,0,95.776-41.168,95.792-95.76			C192.184,311.552,185.016,304.4,176.184,304.4z M96.392,384.16c-31.376,0-55.44-19.328-62-47.76h124			C151.832,364.832,127.768,384.16,96.392,384.16z"/>	</g></g><g>	<g>		<path d="M100.632,39.824c-8.448-2.448-17.392,2.272-19.936,10.72L1.288,314.656c-2.56,8.464,2.24,17.392,10.704,19.936			c1.552,0.448,3.088,0.672,4.624,0.672c6.88,0,13.232-4.48,15.312-11.392L111.336,59.76			C113.88,51.296,109.08,42.368,100.632,39.824z"/>	</g></g><g>	<g>		<path d="M191.496,314.656L112.12,50.544c-2.544-8.448-11.456-13.2-19.92-10.72c-8.48,2.544-13.28,11.472-10.72,19.936			l79.376,264.112c2.08,6.928,8.432,11.392,15.312,11.392c1.52,0,3.072-0.224,4.608-0.672			C189.24,332.048,194.04,323.12,191.496,314.656z"/>	</g></g><g>	<g>		<path d="M495.8,304.4H336.2c-8.832,0-16,7.152-16,16c0,54.592,41.184,95.76,95.808,95.76c54.608,0,95.792-41.168,95.792-95.76			C511.8,311.552,504.632,304.4,495.8,304.4z M416.008,384.16c-31.392,0-55.472-19.328-62.032-47.76h124.032			C471.448,364.832,447.384,384.16,416.008,384.16z"/>	</g></g><g>	<g>		<path d="M420.216,39.824c-8.432-2.448-17.392,2.272-19.936,10.72l-79.408,264.112c-2.56,8.464,2.24,17.392,10.704,19.936			c1.552,0.448,3.088,0.672,4.624,0.672c6.88,0,13.248-4.48,15.312-11.392L430.92,59.76C433.48,51.296,428.68,42.368,420.216,39.824			z"/>	</g></g><g>	<g>		<path d="M511.112,314.656L431.704,50.544c-2.544-8.448-11.44-13.2-19.936-10.72c-8.448,2.544-13.248,11.472-10.704,19.936			l79.408,264.112c2.08,6.928,8.432,11.392,15.312,11.392c1.52,0,3.088-0.224,4.624-0.672			C508.856,332.048,513.656,323.12,511.112,314.656z"/>	</g></g><g>	<g>		<path d="M208.2,32.4h-112c-8.832,0-16,7.152-16,16s7.168,16,16,16h112c8.832,0,16-7.152,16-16S217.032,32.4,208.2,32.4z"/>	</g></g><g>	<g>		<path d="M416.2,32.4h-128c-8.832,0-16,7.152-16,16s7.168,16,16,16h128c8.832,0,16-7.152,16-16S425.032,32.4,416.2,32.4z"/>	</g></g><g>	<g>		<path d="M256.2,64.4c-8.832,0-16,7.152-16,16v352c0,8.848,7.168,16,16,16c8.832,0,16-7.152,16-16v-352			C272.2,71.552,265.032,64.4,256.2,64.4z"/>	</g></g><g></g><g></g><g></g><g></g><g></g><g></g><g></g><g></g><g></g><g></g><g></g><g></g><g></g><g></g><g></g></svg>