<svg width="26" height="24" viewBox="0 0 26 24" fill="none" xmlns="http://www.w3.org/2000/svg">
<path fill-rule="evenodd" clip-rule="evenodd" d="M1.8091 0C1.23281 0 0.765625 0.467181 0.765625 1.04348C0.765625 1.61978 1.23281 2.08696 1.8091 2.08696H5.12769L5.99549 6.42269C6.00011 6.45238 6.00599 6.48166 6.01306 6.51047L7.75623 15.2198C7.89951 15.9401 8.29145 16.5871 8.86352 17.0476C9.43297 17.506 10.1448 17.7506 10.8755 17.7391H21.0001C21.7308 17.7506 22.4426 17.506 23.0121 17.0476C23.5844 16.5869 23.9764 15.9396 24.1196 15.2189L25.7906 6.45634C25.8489 6.15086 25.7679 5.83532 25.5696 5.59571C25.3714 5.3561 25.0766 5.21739 24.7656 5.21739H7.8826L7.0062 0.838688C6.90859 0.351011 6.48037 0 5.98302 0H1.8091ZM9.80302 14.8124L8.3003 7.30435H23.5043L22.0719 14.8157C22.0236 15.0546 21.8933 15.2691 21.7034 15.4219C21.5127 15.5755 21.274 15.6571 21.0291 15.6524L21.0091 15.6522H10.8665L10.8465 15.6524C10.6016 15.6571 10.3629 15.5755 10.1722 15.4219C9.98141 15.2683 9.85073 15.0526 9.80302 14.8124ZM8.06997 21.913C8.06997 20.7604 9.00434 19.8261 10.1569 19.8261C11.3095 19.8261 12.2439 20.7604 12.2439 21.913C12.2439 23.0656 11.3095 24 10.1569 24C9.00434 24 8.06997 23.0656 8.06997 21.913ZM19.5482 21.913C19.5482 20.7604 20.4826 19.8261 21.6352 19.8261C22.7878 19.8261 23.7221 20.7604 23.7221 21.913C23.7221 23.0656 22.7878 24 21.6352 24C20.4826 24 19.5482 23.0656 19.5482 21.913Z" fill="black"/>
</svg>
