<svg width="40" height="40" viewBox="0 0 40 40" fill="none" xmlns="http://www.w3.org/2000/svg">
<path fill-rule="evenodd" clip-rule="evenodd" d="M8.86599 3.34186C9.5553 2.61809 10.4783 2.22222 11.4286 2.22222C14.1162 2.22222 15.9728 4.22653 17.23 6.62667C17.8424 7.79572 18.2648 8.97543 18.5344 9.86944C18.5478 9.91372 18.5608 9.95725 18.5733 10H11.4286C10.4783 10 9.5553 9.60413 8.86599 8.88036C8.17493 8.15475 7.77778 7.15953 7.77778 6.11111C7.77778 5.0627 8.17493 4.06747 8.86599 3.34186ZM28.5714 10H21.4267C21.4393 9.95725 21.4522 9.91372 21.4656 9.86944C21.7352 8.97543 22.1576 7.79572 22.77 6.62667C24.0272 4.22653 25.8838 2.22222 28.5714 2.22222C29.5217 2.22222 30.4447 2.61809 31.134 3.34186C31.8251 4.06747 32.2222 5.0627 32.2222 6.11111C32.2222 7.15953 31.8251 8.15475 31.134 8.88036C30.4447 9.60413 29.5217 10 28.5714 10ZM34.4445 6.11111C34.4445 7.53001 33.9699 8.90552 33.1022 10H38.8889C39.5025 10 40 10.4975 40 11.1111V20C40 20.6136 39.5025 21.1111 38.8889 21.1111H36.6667V38.8889C36.6667 39.5025 36.1692 40 35.5556 40H20H4.44444C3.83079 40 3.33333 39.5025 3.33333 38.8889V21.1111H1.11111C0.497461 21.1111 0 20.6136 0 20V11.1111C0 10.4975 0.497461 10 1.11111 10H6.89782C6.0301 8.90552 5.55556 7.53001 5.55556 6.11111C5.55556 4.50736 6.1618 2.95904 7.2568 1.80929C8.35355 0.657701 9.85297 0 11.4286 0C15.4076 0 17.8367 2.99569 19.1985 5.59555C19.5092 6.18856 19.7748 6.77946 20 7.33918C20.2252 6.77946 20.4908 6.18856 20.8015 5.59555C22.1633 2.99569 24.5924 0 28.5714 0C30.147 0 31.6465 0.657701 32.7432 1.80929C33.8382 2.95904 34.4445 4.50736 34.4445 6.11111ZM5.55556 21.1111V37.7778H18.8889V21.1111H5.55556ZM21.1111 37.7778H34.4444V21.1111H21.1111V37.7778ZM4.44444 18.8889H18.8889V12.2222L11.4286 12.2222L11.4253 12.2222H2.22222V18.8889H4.44444ZM35.5556 18.8889H37.7778V12.2222H28.5747L28.5714 12.2222L21.1111 12.2222V18.8889H35.5556Z" fill="#FFB800"/>
</svg>
