<svg width="36" height="40" viewBox="0 0 36 40" fill="none" xmlns="http://www.w3.org/2000/svg">
<path fill-rule="evenodd" clip-rule="evenodd" d="M17.6471 0C16.7925 0 15.9549 0.231286 15.2187 0.66798L15.2162 0.669452L2.41031 8.19769L2.40574 8.20041C1.66992 8.63746 1.06283 9.26341 0.642111 10.0122C0.2215 10.7608 0.000857746 11.6087 0 12.469V27.5321C0.000858307 28.3924 0.2215 29.2392 0.642111 29.9878C1.06283 30.7366 1.66992 31.3625 2.40574 31.7996L2.41031 31.8023L15.2162 39.3305L15.2185 39.3319C15.9548 39.7687 16.7924 40 17.6471 40C18.5017 40 19.3393 39.7687 20.0756 39.3319L20.0779 39.3305L32.8838 31.8023L32.8884 31.7996C33.6242 31.3625 34.2313 30.7366 34.652 29.9878C35.0726 29.2392 35.2933 28.3913 35.2941 27.531V12.4679C35.2933 11.6076 35.0726 10.7608 34.652 10.0122C34.2313 9.26341 33.6242 8.63746 32.8884 8.2004L20.0779 0.669452L20.0754 0.66798C19.3392 0.231286 18.5017 0 17.6471 0ZM18.8235 37.338C18.8412 37.3281 18.8588 37.3179 18.8763 37.3076L18.8809 37.3049L31.6868 29.7766L31.6888 29.7754C32.0638 29.5522 32.3794 29.2291 32.6007 28.8352C32.8225 28.4404 32.9407 27.9901 32.9412 27.5298V12.4702L32.941 12.4405L18.8235 20.6757V37.338ZM16.4706 20.6757V37.338C16.4529 37.3281 16.4353 37.3179 16.4178 37.3075L3.60733 29.7766L3.60531 29.7754C3.2303 29.5522 2.91474 29.2291 2.69343 28.8352C2.47171 28.4406 2.35349 27.9905 2.35294 27.5303V12.4697L2.35313 12.4405L16.4706 20.6757ZM16.4178 2.69245C16.7938 2.46911 17.2176 2.35294 17.6471 2.35294C18.0765 2.35294 18.5003 2.46912 18.8763 2.69246L31.6868 10.2234L31.6888 10.2246C31.7503 10.2612 31.8101 10.3005 31.8682 10.3423L25.7914 13.8871L11.3817 5.65305L16.4132 2.69516L16.4178 2.69245ZM17.6471 18.638L3.42588 10.3423C3.48397 10.3005 3.54382 10.2612 3.60526 10.2246L3.60733 10.2234L9.0441 7.02727L23.4445 15.2561L17.6471 18.638Z" fill="#FFB800"/>
</svg>
