<svg width="27" height="40" viewBox="0 0 27 40" fill="none" xmlns="http://www.w3.org/2000/svg">
<path fill-rule="evenodd" clip-rule="evenodd" d="M2 13.0898C2 6.96508 6.96508 2 13.0898 2C19.2145 2 24.1796 6.96508 24.1796 13.0898C24.1796 16.9539 22.2033 20.3564 19.2064 22.3417C19.1276 22.3792 19.0548 22.4264 18.9895 22.4818C17.2808 23.5574 15.258 24.1796 13.0898 24.1796C6.96508 24.1796 2 19.2145 2 13.0898ZM18.84 24.8523C17.1043 25.7024 15.1528 26.1796 13.0898 26.1796C11.0276 26.1796 9.07674 25.7027 7.34155 24.8532L5.71868 37.0717L12.5753 32.9577C12.892 32.7677 13.2876 32.7677 13.6043 32.9577L20.4613 37.0719L18.84 24.8523ZM5.47236 23.7361C2.15888 21.3611 0 17.4776 0 13.0898C0 5.86051 5.86051 0 13.0898 0C20.3191 0 26.1796 5.86051 26.1796 13.0898C26.1796 17.4767 24.0216 21.3595 20.7093 23.7347L22.7167 38.865C22.7672 39.2457 22.5953 39.6216 22.2744 39.8324C21.9534 40.0432 21.5401 40.0516 21.2109 39.854L13.0898 34.9814L4.96873 39.854C4.63945 40.0516 4.22614 40.0432 3.90519 39.8323C3.58425 39.6215 3.41238 39.2455 3.46294 38.8649L5.47236 23.7361Z" fill="#FFB800"/>
</svg>
