<svg width="29" height="24" viewBox="0 0 29 24" fill="none" xmlns="http://www.w3.org/2000/svg">
<path fill-rule="evenodd" clip-rule="evenodd" d="M16.4454 5.62186C16.0588 6.00845 15.5824 6.29316 15.0588 6.45054V22.1176H21.1765V24H7.05881V22.1176H13.1765V6.45054C12.6529 6.29316 12.1765 6.00845 11.7899 5.62186C11.4033 5.23527 11.1186 4.75888 10.9612 4.23531H4.70587V2.35295H10.9612C11.1638 1.67315 11.5805 1.07692 12.1492 0.652965C12.7179 0.229013 13.4083 0 14.1176 0C14.827 0 15.5174 0.229013 16.0861 0.652965C16.6548 1.07692 17.0715 1.67315 17.274 2.35295H23.5294V4.23531H17.274C17.1167 4.75888 16.8319 5.23527 16.4454 5.62186ZM12.9438 2.5098C12.7887 2.74196 12.7059 3.01491 12.7059 3.29413C12.7059 3.66855 12.8546 4.02764 13.1194 4.2924C13.3841 4.55716 13.7432 4.70589 14.1176 4.70589C14.3969 4.70589 14.6698 4.6231 14.902 4.46797C15.1341 4.31284 15.3151 4.09236 15.4219 3.83439C15.5288 3.57642 15.5567 3.29256 15.5023 3.01871C15.4478 2.74485 15.3133 2.4933 15.1159 2.29586C14.9185 2.09842 14.6669 1.96397 14.3931 1.90949C14.1192 1.85502 13.8353 1.88298 13.5774 1.98983C13.3194 2.09668 13.0989 2.27763 12.9438 2.5098ZM11.0145 17.6126L11.2941 17.305V15.7882L6.71323 6.11766H4.58088L0 15.7882V17.3789L0.249059 17.6492C0.933113 18.3899 1.76291 18.9812 2.68635 19.3859C3.60979 19.7907 4.60693 20.0001 5.61517 20.0011H5.63988C6.65227 19.9966 7.6527 19.782 8.57786 19.3709C9.50301 18.9597 10.3327 18.361 11.0145 17.6126ZM9.41176 16.5652C8.40753 17.5626 7.04887 18.1213 5.63347 18.1189H5.61406C4.22356 18.1258 2.88503 17.5909 1.88235 16.6275V16.2118L5.64706 8.26401L9.41176 16.2118V16.5652ZM23.6544 6.11766H21.522L16.9412 15.7882V17.3789L17.1902 17.6492C17.8743 18.3899 18.7041 18.9812 19.6275 19.3859C20.551 19.7907 21.5481 20.0001 22.5563 20.0011H22.581C23.5934 19.9966 24.5939 19.782 25.519 19.3708C26.4442 18.9597 27.2739 18.3609 27.9557 17.6125L28.2353 17.305V15.7882L23.6544 6.11766ZM26.3529 16.5652C25.3487 17.5626 23.99 18.1213 22.5746 18.1189H22.5552C21.1647 18.1258 19.8262 17.5909 18.8235 16.6275V16.2118L22.5882 8.26401L26.3529 16.2118V16.5652Z" fill="black"/>
</svg>
