<svg width="31" height="24" viewBox="0 0 31 24" fill="none" xmlns="http://www.w3.org/2000/svg">
<path fill-rule="evenodd" clip-rule="evenodd" d="M2.18182 3.81818C2.18182 2.91444 2.91444 2.18182 3.81818 2.18182H26.7273C27.631 2.18182 28.3636 2.91444 28.3636 3.81818V20.1818C28.3636 21.0856 27.631 21.8182 26.7273 21.8182H3.81818C2.91444 21.8182 2.18182 21.0856 2.18182 20.1818V3.81818ZM3.81818 0C1.70946 0 0 1.70946 0 3.81818V20.1818C0 22.2905 1.70946 24 3.81818 24H26.7273C28.836 24 30.5455 22.2905 30.5455 20.1818V3.81818C30.5455 1.70946 28.836 0 26.7273 0H3.81818ZM6.1243 4.59343C5.64872 4.22354 4.96333 4.30921 4.59343 4.78479C4.22354 5.26037 4.30921 5.94576 4.78479 6.31566L14.603 13.952C14.9969 14.2584 15.5485 14.2584 15.9425 13.952L25.7607 6.31566C26.2362 5.94576 26.3219 5.26037 25.952 4.78479C25.5821 4.30921 24.8967 4.22354 24.4212 4.59343L15.2727 11.7089L6.1243 4.59343Z" fill="black"/>
</svg>
