<svg width="40" height="30" viewBox="0 0 40 30" fill="none" xmlns="http://www.w3.org/2000/svg">
<path fill-rule="evenodd" clip-rule="evenodd" d="M2.85714 4.82143C2.85714 3.73012 3.73577 2.85714 4.80519 2.85714H35.1948C36.2642 2.85714 37.1429 3.73012 37.1429 4.82143V7.14284H2.85714V4.82143ZM0 9.99998V4.82143C0 2.16509 2.14491 0 4.80519 0H35.1948C37.8551 0 40 2.16509 40 4.82143V9.99998V25.1786C40 27.8349 37.8551 30 35.1948 30H4.80519C2.14491 30 0 27.8349 0 25.1786V9.99998ZM37.1429 12.8571V25.1786C37.1429 26.2699 36.2642 27.1429 35.1948 27.1429H4.80519C3.73577 27.1429 2.85714 26.2699 2.85714 25.1786V12.8571H37.1429Z" fill="#FFB800"/>
</svg>
